<svg width="54" height="51" viewBox="0 0 54 51" fill="none" xmlns="http://www.w3.org/2000/svg">
<path d="M37.5273 29.8868L37.4729 20.9894C40.1026 21.8146 42.4769 23.3495 44.307 25.396C42.5016 27.4656 40.1472 29.0286 37.5273 29.8868ZM9.69138 25.6073C11.5198 27.6538 13.8941 29.1887 16.5255 30.0139L16.4711 21.1165C13.8512 21.9731 11.4951 23.5377 9.69138 25.6056V25.6073ZM35.7433 40.4544C36.6007 37.8451 36.7408 35.0196 36.139 32.3261L28.469 36.8219C30.5217 38.6654 33.0509 39.9247 35.7433 40.4544ZM35.562 10.4449C32.8762 11.0077 30.3618 12.2983 28.3322 14.1649L36.0566 18.5666C36.6254 15.8665 36.4507 13.0426 35.562 10.4432V10.4449ZM18.4347 40.5584C21.1205 39.9956 23.6349 38.705 25.6645 36.8384L17.9401 32.4367C17.3713 35.1368 17.546 37.9607 18.4347 40.5584ZM18.2534 10.5489C17.3977 13.1582 17.2559 15.9837 17.8577 18.6772L25.5277 14.1814C23.475 12.3379 20.9458 11.0786 18.2534 10.5489ZM17.335 8.22672C17.3861 8.11615 17.4356 8.00557 17.4883 7.89664C17.6664 7.5286 17.8527 7.16716 18.0539 6.81892V6.81727C18.2764 6.43272 18.5139 6.06138 18.7628 5.69828C18.8403 5.58605 18.9228 5.47713 19.0019 5.36655C19.1816 5.11734 19.3646 4.87307 19.5559 4.63541C19.6515 4.51658 19.7488 4.3994 19.8461 4.28387C20.0406 4.05447 20.2418 3.83166 20.4478 3.6138C20.5435 3.51313 20.6358 3.4108 20.7331 3.31178C21.015 3.02791 21.3052 2.75394 21.6053 2.49152C21.63 2.47007 21.6531 2.44696 21.6762 2.4255C22.0026 2.14328 22.3423 1.87756 22.6918 1.62175C22.7973 1.54418 22.9078 1.47156 23.015 1.39729C23.2656 1.22235 23.5195 1.05236 23.78 0.890614C23.9102 0.809744 24.0405 0.732174 24.1724 0.654604C24.2796 0.591889 24.3834 0.524222 24.4906 0.463157C23.3612 0.204041 22.2153 0.0753085 21.0744 0.0753085C18.4248 0.0753085 15.7951 0.766834 13.434 2.13173C9.9931 4.12048 7.51008 7.30579 6.40871 11.0638C6.45652 11.0341 6.50598 11.011 6.5538 10.9829C6.8786 10.7882 7.20671 10.6017 7.5447 10.43C7.65352 10.3739 7.76563 10.3244 7.8761 10.2716C8.12341 10.1528 8.37237 10.0389 8.62463 9.93161C8.76972 9.86889 8.91481 9.80617 9.0632 9.74841C9.37811 9.62463 9.69632 9.5091 10.0195 9.40512C10.1893 9.34901 10.3591 9.30115 10.5306 9.24998C10.7482 9.18562 10.9675 9.12785 11.1884 9.07174C11.4061 9.01727 11.6237 8.96611 11.8447 8.9199C12.12 8.86213 12.3953 8.81097 12.6723 8.76806C12.8438 8.74165 13.0153 8.7169 13.1884 8.69544C13.4984 8.65583 13.8083 8.62448 14.1216 8.60137C14.2749 8.59147 14.4266 8.58321 14.5799 8.57661C14.885 8.56341 15.1916 8.55846 15.4999 8.56011C15.6236 8.56011 15.7473 8.56011 15.8709 8.56506C16.265 8.57826 16.659 8.60302 17.0531 8.64263C17.0827 8.64593 17.1108 8.64593 17.1404 8.64923C17.2015 8.50729 17.2707 8.37031 17.335 8.23003V8.22672ZM36.6633 42.7716C36.6122 42.8822 36.5628 42.9944 36.51 43.105C36.3319 43.4731 36.1456 43.8345 35.9428 44.186C35.7203 44.5706 35.4812 44.9419 35.2339 45.305C35.1564 45.4189 35.0739 45.5278 34.9948 45.6384C34.8167 45.886 34.6337 46.1302 34.4425 46.3679C34.3468 46.4867 34.2496 46.6055 34.1506 46.7227C33.9561 46.9521 33.7566 47.1733 33.5505 47.3911C33.4549 47.4918 33.3609 47.5958 33.2636 47.6948C32.9833 47.977 32.6948 48.2494 32.3964 48.5101C32.37 48.5332 32.3453 48.558 32.3189 48.5811C31.9924 48.8633 31.6528 49.129 31.3049 49.3848C31.1994 49.4624 31.0906 49.5334 30.9834 49.6093C30.7328 49.7843 30.4789 49.9543 30.2167 50.116C30.0881 50.1969 29.9562 50.2744 29.8243 50.352C29.7171 50.4147 29.6133 50.4824 29.5045 50.5434C33.2504 51.4033 37.1827 50.8273 40.561 48.8749C44.002 46.8861 46.485 43.7008 47.5863 39.9428C47.4891 40.0022 47.3868 40.0517 47.2896 40.1079C47.095 40.2217 46.8988 40.3307 46.701 40.4363C46.4833 40.5535 46.2624 40.664 46.0398 40.7713C45.8321 40.8703 45.6227 40.9661 45.4116 41.0568C45.1907 41.1509 44.9698 41.24 44.7455 41.3259C44.523 41.41 44.3004 41.4926 44.0745 41.5668C43.8569 41.6394 43.6359 41.7055 43.415 41.7698C43.1776 41.8391 42.9402 41.9052 42.6994 41.9629C42.4851 42.0157 42.2691 42.0603 42.0515 42.1032C41.8009 42.1544 41.5519 42.2022 41.298 42.2418C41.0837 42.2748 40.8693 42.3013 40.655 42.326C40.3994 42.3557 40.1439 42.3854 39.885 42.4036C39.6624 42.4201 39.4398 42.425 39.2173 42.4316C39.0425 42.4366 38.8677 42.4547 38.693 42.4547C38.6105 42.4547 38.5264 42.4465 38.444 42.4448C38.2775 42.4432 38.111 42.4333 37.9444 42.4267C37.6674 42.4151 37.3921 42.397 37.1151 42.3722C37.0294 42.364 36.9436 42.364 36.8579 42.3557C36.7985 42.496 36.7293 42.633 36.665 42.7733L36.6633 42.7716ZM7.22319 25.2409C7.15229 25.1419 7.0814 25.0428 7.0138 24.9422C6.78462 24.6038 6.56369 24.2622 6.36254 23.9123C6.13996 23.5278 5.93881 23.135 5.74921 22.7388C5.68985 22.6151 5.63709 22.488 5.57938 22.3626C5.45408 22.0836 5.33537 21.8047 5.2249 21.5208C5.16884 21.3773 5.11608 21.2337 5.06497 21.0884C4.9644 20.8062 4.87207 20.5223 4.78798 20.2352C4.74841 20.1015 4.70554 19.9678 4.66927 19.8341C4.5654 19.4512 4.47472 19.065 4.39888 18.6772C4.39228 18.6425 4.38239 18.6079 4.37579 18.5732C4.295 18.149 4.23565 17.7232 4.18783 17.2941C4.173 17.1637 4.1664 17.0301 4.15486 16.8997C4.12848 16.596 4.1087 16.2923 4.0988 15.9853C4.09386 15.8319 4.09221 15.6784 4.09056 15.5249C4.09056 15.4011 4.08231 15.2773 4.08396 15.1535C1.46739 17.9708 0 21.6677 0 25.5726C0 29.4775 1.5152 33.2949 4.21422 36.1287C4.21092 35.995 4.21751 35.863 4.21751 35.7293C4.21751 35.5725 4.21751 35.4157 4.22081 35.2589C4.22905 34.9437 4.24719 34.6301 4.27192 34.3165C4.28181 34.1862 4.28841 34.0541 4.3016 33.9237C4.34776 33.4847 4.40712 33.0457 4.48626 32.6116C4.49615 32.5572 4.51099 32.5044 4.52088 32.4499C4.59343 32.0703 4.68081 31.6924 4.77974 31.3177C4.81766 31.1758 4.86053 31.0372 4.90175 30.8969C4.98583 30.6064 5.07816 30.3176 5.17874 30.0304C5.2315 29.8819 5.28426 29.7333 5.34031 29.5864C5.45078 29.2976 5.56949 29.0137 5.69644 28.7315C5.75415 28.6028 5.80691 28.4741 5.86792 28.347C6.05917 27.9459 6.26197 27.5482 6.4862 27.1603C6.67251 26.8385 6.87366 26.5216 7.08305 26.2097C7.14405 26.1189 7.2067 26.0314 7.26771 25.9423C7.3419 25.835 7.4128 25.7261 7.49029 25.6205C7.39796 25.4967 7.31387 25.368 7.22484 25.2425L7.22319 25.2409ZM16.2716 19.3869C15.5395 16.393 15.6318 13.2324 16.5337 10.3046C16.3655 10.2914 16.199 10.2782 16.0308 10.2699C16.0028 10.2699 15.9731 10.2666 15.9451 10.265C12.7696 10.1379 9.62048 11.0077 6.97588 12.7208C6.91817 12.7588 6.86211 12.7984 6.80441 12.8363C6.65602 12.9354 6.50928 13.036 6.36419 13.14C6.2867 13.1961 6.20921 13.2555 6.13172 13.3133C6.05917 13.3678 5.98992 13.4222 5.91903 13.4784C5.89595 13.6516 5.87946 13.8249 5.86297 13.9982C5.84483 14.1946 5.8234 14.391 5.81186 14.5858C5.79867 14.8152 5.79867 15.043 5.79537 15.2724C5.79372 15.4655 5.78713 15.6602 5.79207 15.8533C5.79867 16.0827 5.8168 16.3105 5.83329 16.5382C5.84648 16.728 5.85637 16.9195 5.87616 17.1076C5.90089 17.3387 5.94046 17.5664 5.97673 17.7942C6.00476 17.9774 6.02784 18.1622 6.06412 18.3454C6.11028 18.5798 6.16964 18.8092 6.22734 19.0403C6.27021 19.2152 6.30648 19.3918 6.3543 19.5634C6.4219 19.8028 6.50598 20.0388 6.58677 20.2764C6.64118 20.4365 6.68735 20.5999 6.74835 20.76C6.84563 21.0191 6.96104 21.2733 7.07151 21.5291C7.12921 21.6611 7.17867 21.7965 7.24133 21.9268C7.42269 22.3114 7.62054 22.6893 7.83488 23.0623C8.05416 23.4419 8.29488 23.8133 8.55044 24.178C8.56693 24.2028 8.58671 24.2259 8.6032 24.249C10.6592 21.978 13.3269 20.2847 16.2716 19.3885V19.3869ZM46.7752 25.7591C46.8461 25.8581 46.917 25.9555 46.9845 26.0562C47.2137 26.3945 47.4347 26.7378 47.6358 27.0877C47.8584 27.4722 48.0595 27.865 48.2491 28.2612C48.3085 28.3849 48.3613 28.512 48.419 28.6374C48.5443 28.9164 48.663 29.1953 48.7734 29.4792C48.8295 29.6227 48.8823 29.7663 48.9334 29.9116C49.034 30.1938 49.1263 30.4793 49.212 30.7648C49.2516 30.8985 49.2945 31.0306 49.3307 31.1659C49.4346 31.5504 49.5253 31.9366 49.6028 32.3261C49.6094 32.3608 49.6193 32.3938 49.6259 32.4285C49.7066 32.8526 49.766 33.2801 49.8138 33.7092C49.8287 33.8396 49.8352 33.9699 49.8468 34.102C49.8732 34.4073 49.893 34.7126 49.9028 35.018C49.9078 35.1698 49.9094 35.3233 49.9094 35.4768C49.9094 35.6006 49.9177 35.7243 49.916 35.8498C52.5326 33.0325 54 29.3372 54 25.4307C54 21.4532 52.4848 17.7084 49.7858 14.8746C49.7891 15.0083 49.7825 15.142 49.7825 15.2757C49.7825 15.4324 49.7825 15.5876 49.7792 15.7427C49.7709 16.0596 49.7528 16.3748 49.7264 16.6901C49.7165 16.8188 49.7099 16.9492 49.6968 17.0779C49.6506 17.5186 49.5912 17.9576 49.5121 18.3916C49.5022 18.4428 49.489 18.494 49.4791 18.5451C49.4049 18.928 49.3192 19.3093 49.2186 19.6872C49.1823 19.8259 49.1395 19.9628 49.0983 20.1015C49.0125 20.3936 48.9218 20.6841 48.8196 20.9729C48.7685 21.1214 48.7141 21.2683 48.658 21.4152C48.5476 21.704 48.4272 21.9896 48.3019 22.2718C48.2458 22.3989 48.1914 22.5276 48.1321 22.6547C47.9408 23.0574 47.738 23.4535 47.5138 23.8413C47.3275 24.1648 47.1263 24.48 46.917 24.7936C46.8576 24.8827 46.7949 24.9702 46.7339 25.0593C46.6597 25.1666 46.5888 25.2772 46.5114 25.3828C46.6037 25.5066 46.6878 25.6337 46.7768 25.7608L46.7752 25.7591ZM37.7268 31.6131C38.4588 34.607 38.3665 37.7676 37.4646 40.6971C37.6246 40.7103 37.7861 40.7218 37.9461 40.7301C37.984 40.7317 38.0219 40.735 38.0598 40.7367C41.232 40.8621 44.3779 39.994 47.0208 38.2808C47.0802 38.2429 47.1379 38.2016 47.1972 38.162C47.344 38.0646 47.4891 37.964 47.6325 37.8616C47.7116 37.8039 47.7891 37.7461 47.8683 37.6867C47.9392 37.6339 48.0101 37.5778 48.0793 37.5233C48.1008 37.3517 48.1189 37.18 48.1337 37.01C48.1519 36.812 48.1749 36.6139 48.1848 36.4159C48.198 36.1881 48.198 35.962 48.2013 35.7359C48.203 35.5411 48.2096 35.3447 48.2046 35.15C48.198 34.9222 48.1799 34.6945 48.1634 34.4684C48.1502 34.2769 48.1403 34.0871 48.1205 33.8957C48.0958 33.6646 48.0562 33.4369 48.02 33.2091C47.9919 33.0259 47.9689 32.8411 47.9326 32.6579C47.8864 32.4235 47.8271 32.1941 47.7694 31.963C47.7265 31.7881 47.6902 31.6132 47.6424 31.4399C47.5748 31.1989 47.4907 30.9629 47.4099 30.7252C47.3555 30.5651 47.3094 30.4034 47.25 30.245C47.1511 29.9825 47.0357 29.7251 46.9235 29.4676C46.8658 29.3389 46.818 29.2068 46.757 29.0781C46.579 28.7018 46.3844 28.3305 46.175 27.9641C46.1701 27.9575 46.1684 27.9492 46.1635 27.9426C45.9442 27.5614 45.7018 27.19 45.4479 26.8253C45.4314 26.8005 45.4116 26.7791 45.3952 26.7543C43.3392 29.0253 40.6715 30.7186 37.7268 31.6148V31.6131ZM17.0151 42.4993C16.7711 42.5241 16.5288 42.5422 16.2847 42.5571C16.0539 42.5703 15.8247 42.5802 15.5956 42.5851C15.4999 42.5851 15.4027 42.5967 15.307 42.5967C15.1933 42.5967 15.0828 42.5851 14.9707 42.5835C14.6838 42.5785 14.4002 42.567 14.115 42.5472C13.932 42.534 13.7506 42.5191 13.5692 42.4993C13.2824 42.4696 12.9971 42.4349 12.7119 42.392C12.5239 42.364 12.336 42.331 12.1497 42.2963C11.8826 42.2468 11.6188 42.1907 11.355 42.128C11.1538 42.0801 10.9527 42.0289 10.7532 41.9728C10.5108 41.9052 10.2701 41.8325 10.031 41.755C9.81998 41.6857 9.61059 41.613 9.40284 41.5371C9.17696 41.4529 8.95273 41.3638 8.7318 41.2697C8.52241 41.1806 8.31302 41.0898 8.10692 40.9925C7.88929 40.8901 7.6766 40.7829 7.46226 40.6706C7.26111 40.565 7.05997 40.4561 6.86212 40.3422C6.77143 40.2894 6.67745 40.2465 6.58842 40.192C7.71782 43.8692 10.1811 46.9901 13.561 48.9425C17.002 50.9313 21.0002 51.4908 24.8006 50.5666C24.6835 50.5038 24.573 50.4296 24.456 50.3636C24.3208 50.286 24.1856 50.2068 24.0504 50.1259C23.7816 49.9608 23.5195 49.7892 23.2623 49.6093C23.1535 49.535 23.043 49.4641 22.9358 49.3865C22.578 49.1274 22.2302 48.8567 21.8938 48.5712C21.8493 48.5332 21.8097 48.492 21.7652 48.454C21.475 48.2015 21.1931 47.9407 20.9194 47.6684C20.8155 47.5644 20.7149 47.4555 20.6144 47.3499C20.4066 47.132 20.2038 46.9092 20.0076 46.6815C19.9038 46.561 19.8015 46.4389 19.7026 46.3167C19.5097 46.0774 19.3234 45.8332 19.142 45.5839C19.0596 45.4701 18.9739 45.3578 18.8947 45.2423C18.6425 44.8759 18.4001 44.5013 18.1775 44.1134C17.9912 43.7899 17.8197 43.4582 17.6532 43.1215C17.6054 43.0241 17.5592 42.9251 17.5131 42.8261C17.457 42.7089 17.3977 42.5917 17.3449 42.4729C17.2344 42.4861 17.124 42.4878 17.0135 42.4993H17.0151ZM19.0843 42.1725C19.0909 42.1874 19.0975 42.2022 19.1041 42.2171C19.2756 42.5736 19.4569 42.9251 19.6532 43.2635C19.8691 43.6381 20.1016 44.0012 20.3473 44.3544C20.4297 44.4732 20.5237 44.5838 20.6094 44.701C20.7792 44.9304 20.9458 45.1598 21.1271 45.3793C21.2376 45.513 21.3596 45.6368 21.4734 45.7671C21.6432 45.9569 21.8097 46.1517 21.9878 46.3332C22.1164 46.4636 22.2549 46.5857 22.3884 46.7128C22.5649 46.8812 22.7396 47.0512 22.9243 47.2096C23.0677 47.3334 23.2211 47.4473 23.3694 47.5661C23.5541 47.7146 23.7388 47.8648 23.93 48.0051C24.0866 48.119 24.2515 48.223 24.4131 48.3319C24.6077 48.4623 24.7989 48.5943 24.9984 48.7148C25.1666 48.8171 25.3414 48.9095 25.5145 49.0053C25.7173 49.1175 25.9184 49.2314 26.1245 49.3337C26.3026 49.4228 26.4872 49.5004 26.6686 49.5812C26.8269 49.6522 26.9852 49.7215 27.1467 49.7876C27.3034 49.7215 27.4584 49.6522 27.6133 49.5812C27.7931 49.4987 27.9761 49.4195 28.1525 49.3304C28.3569 49.2281 28.5531 49.1142 28.751 49.0036C28.9208 48.9079 29.0923 48.8155 29.2571 48.7148C29.4517 48.5943 29.6397 48.4639 29.8293 48.3368C29.9875 48.2296 30.1475 48.1272 30.3008 48.015C30.4888 47.8764 30.6668 47.7278 30.8465 47.5826C30.99 47.4671 31.1384 47.3548 31.2769 47.2327C31.4566 47.0759 31.628 46.9076 31.7995 46.7409C31.9281 46.6171 32.0617 46.4983 32.187 46.3712C32.3617 46.1913 32.525 45.9998 32.6899 45.8117C32.802 45.6846 32.9174 45.5641 33.0245 45.4338C33.201 45.2192 33.3642 44.9914 33.5291 44.767C33.6148 44.6515 33.7055 44.5409 33.7879 44.422C34.0286 44.0722 34.2578 43.7124 34.4722 43.341C34.6914 42.9598 34.8926 42.5653 35.0805 42.1626C35.0937 42.1362 35.1036 42.1082 35.1152 42.0817C32.1227 41.4348 29.3247 39.9692 27.0758 37.8649C24.8517 39.9956 22.0702 41.4975 19.0843 42.1791V42.1725ZM16.3474 31.7452C13.3912 30.8837 10.7021 29.2217 8.61969 26.9755C8.60979 26.9887 8.5999 27.0019 8.59166 27.0151C8.36743 27.3419 8.15639 27.6753 7.96018 28.0136C7.7442 28.3882 7.54635 28.7711 7.36334 29.1606C7.30233 29.291 7.25287 29.4263 7.19681 29.5584C7.08305 29.8208 6.96763 30.0816 6.86871 30.3489C6.80935 30.5107 6.76154 30.6774 6.70713 30.8424C6.62634 31.085 6.54226 31.326 6.47466 31.5719C6.42519 31.7501 6.38892 31.9317 6.34605 32.1099C6.29 32.3459 6.22899 32.5819 6.18448 32.8196C6.1482 33.0078 6.12677 33.1976 6.09874 33.3873C6.06412 33.6217 6.02455 33.8544 5.99981 34.0888C5.98003 34.2819 5.97179 34.4766 5.9586 34.6714C5.94376 34.9041 5.92562 35.1368 5.92068 35.3695C5.91738 35.5659 5.92397 35.764 5.92892 35.9604C5.93387 36.1914 5.93552 36.4241 5.95035 36.6552C5.96354 36.8532 5.98663 37.0513 6.00806 37.251C6.0262 37.4243 6.04433 37.5959 6.06906 37.7692C6.30483 37.9491 6.54226 38.1273 6.78627 38.2924C6.83573 38.327 6.88685 38.3584 6.93796 38.3931C7.25946 38.6043 7.58427 38.8057 7.91732 38.9905C7.94864 39.007 7.97997 39.0235 8.0113 39.04C8.7318 39.4345 9.47704 39.7679 10.2454 40.0385C10.2585 40.0435 10.2701 40.0484 10.2833 40.0517C10.6724 40.1871 11.0664 40.3059 11.4671 40.4099C11.4803 40.4132 11.4935 40.4165 11.5067 40.4198C11.9106 40.5238 12.3211 40.6096 12.735 40.6805C12.7383 40.6805 12.7399 40.6805 12.7432 40.6805C13.5841 40.8225 14.4431 40.8935 15.3136 40.8935C15.6797 40.8935 16.049 40.8753 16.4183 40.8489C16.4776 40.8439 16.537 40.8406 16.5964 40.8357C16.6392 40.8324 16.6821 40.8241 16.725 40.8208C15.7885 37.9045 15.6582 34.744 16.354 31.7435L16.3474 31.7452ZM37.1118 8.48914C37.2338 8.47759 37.3542 8.46438 37.4745 8.45613C37.8818 8.42642 38.289 8.40662 38.693 8.40662C39.1365 8.40662 39.5767 8.42807 40.0153 8.46108C40.1521 8.47099 40.2873 8.48914 40.4242 8.50234C40.7275 8.53205 41.0293 8.57001 41.3293 8.61622C41.481 8.63933 41.6327 8.66574 41.7844 8.69379C42.0779 8.74661 42.3697 8.81097 42.6599 8.87864C42.7967 8.91165 42.9319 8.94135 43.0671 8.97601C43.4496 9.07834 43.8288 9.19057 44.2031 9.3193C44.2377 9.33085 44.2723 9.33911 44.3053 9.35066C44.7109 9.49259 45.1116 9.65434 45.5056 9.82763C45.626 9.88044 45.7447 9.93986 45.8634 9.99597C46.1404 10.1247 46.4124 10.26 46.6828 10.4053C46.818 10.4779 46.9516 10.5522 47.0835 10.6281C47.1906 10.6891 47.3011 10.7453 47.4083 10.808C46.2789 7.13085 43.8156 4.0099 40.4373 2.05746C36.9964 0.0687059 32.9982 -0.490785 29.1978 0.433449C29.3148 0.497815 29.427 0.570433 29.5424 0.63645C29.6776 0.714019 29.8128 0.79324 29.9463 0.87411C30.2151 1.03915 30.4772 1.21245 30.7361 1.39069C30.8449 1.46496 30.9554 1.53593 31.0609 1.6135C31.4187 1.87261 31.7665 2.14328 32.1029 2.4288C32.1458 2.46511 32.1853 2.50637 32.2298 2.54268C32.52 2.7952 32.8036 3.05761 33.0773 3.32993C33.1812 3.43391 33.2818 3.54119 33.3823 3.64846C33.5901 3.86632 33.7945 4.08913 33.9907 4.31853C34.0946 4.43901 34.1952 4.55949 34.2957 4.68328C34.4886 4.92259 34.6749 5.1685 34.8563 5.41771C34.9388 5.53159 35.0245 5.64217 35.1036 5.75935C35.3559 6.12574 35.5983 6.50039 35.8208 6.88823C36.0071 7.21007 36.1786 7.54345 36.3451 7.88014C36.393 7.97751 36.4391 8.07654 36.4853 8.17556C36.5413 8.29274 36.6007 8.40992 36.6535 8.52875C36.8068 8.5106 36.9601 8.50234 37.1135 8.48749L37.1118 8.48914ZM26.385 1.42865C26.2053 1.51117 26.0256 1.59039 25.8508 1.67786C25.6464 1.78184 25.4485 1.89572 25.249 2.00795C25.0808 2.10202 24.9094 2.19444 24.7462 2.29512C24.5499 2.4156 24.362 2.54598 24.1724 2.67472C24.0158 2.78034 23.8558 2.88267 23.7041 2.9949C23.5162 3.13353 23.3365 3.28207 23.1551 3.42896C23.0117 3.54449 22.8649 3.65672 22.7264 3.7772C22.5467 3.93399 22.3752 4.10233 22.2038 4.26902C22.0752 4.3928 21.9416 4.51163 21.8163 4.63871C21.6415 4.81861 21.4783 5.01171 21.3118 5.20151C21.2013 5.32694 21.0859 5.44742 20.9787 5.5778C20.8007 5.79566 20.6342 6.02507 20.4676 6.25447C20.3852 6.3667 20.2962 6.47398 20.217 6.58951C19.9747 6.9394 19.7471 7.29919 19.5311 7.67218C19.5311 7.67218 19.5311 7.67548 19.5295 7.67548C19.3102 8.05508 19.1107 8.44788 18.9228 8.85058C18.9096 8.87699 18.8997 8.90505 18.8881 8.93145C21.8806 9.57842 24.6786 11.044 26.9275 13.1483C29.1516 11.0176 31.9331 9.5157 34.919 8.83408C34.9124 8.81922 34.9058 8.80437 34.8992 8.78952C34.7277 8.43303 34.5463 8.08149 34.3501 7.74315C34.3485 7.73985 34.3452 7.73655 34.3436 7.73325C34.1292 7.3619 33.9 7.00211 33.656 6.65222C33.5736 6.53339 33.4796 6.42282 33.3939 6.30564C33.224 6.07788 33.0575 5.84682 32.8762 5.62896C32.764 5.49528 32.6437 5.3715 32.5283 5.24112C32.3601 5.05132 32.1936 4.85822 32.0155 4.67667C31.8853 4.54464 31.7468 4.42251 31.6132 4.29543C31.4368 4.12874 31.2637 3.95874 31.0807 3.8003C30.9356 3.67487 30.7839 3.56099 30.6339 3.44216C30.4492 3.29362 30.2662 3.14344 30.0749 3.0048C29.9183 2.89092 29.7534 2.78694 29.5918 2.67802C29.3973 2.54763 29.206 2.4156 29.0065 2.29512C28.8384 2.19279 28.6636 2.10202 28.4921 2.0063C28.2893 1.89407 28.0865 1.78019 27.8788 1.67621C27.7007 1.58874 27.5177 1.50952 27.3363 1.42865C27.1781 1.35768 27.0181 1.28672 26.8566 1.22235C26.6983 1.28837 26.5433 1.35933 26.3883 1.4303L26.385 1.42865ZM37.6526 19.2614C40.6088 20.1229 43.2979 21.7849 45.3803 24.0311C45.3886 24.0179 45.4001 24.0047 45.4083 23.9915C45.6309 23.6647 45.8436 23.3314 46.0398 22.993C46.2558 22.6184 46.4537 22.2355 46.6367 21.846C46.6977 21.7172 46.7455 21.5819 46.8032 21.4515C46.9169 21.1875 47.034 20.925 47.1329 20.6577C47.1923 20.4976 47.2385 20.3309 47.2929 20.1691C47.3737 19.9249 47.4577 19.6823 47.527 19.4347C47.5765 19.2565 47.6127 19.0766 47.6556 18.8967C47.7117 18.6607 47.7727 18.4247 47.8172 18.1853C47.8534 17.9988 47.8749 17.8091 47.9029 17.6209C47.9392 17.3865 47.9771 17.1522 48.0018 16.9162C48.0216 16.7231 48.0299 16.53 48.0414 16.3352C48.0562 16.1009 48.076 15.8682 48.0793 15.6338C48.0826 15.4374 48.0744 15.241 48.0711 15.0446C48.0661 14.8119 48.0645 14.5808 48.0496 14.3481C48.0365 14.1501 48.0134 13.952 47.9919 13.754C47.9738 13.5807 47.9557 13.4074 47.9309 13.2357C47.7941 13.1318 47.6556 13.0327 47.5171 12.9337C47.3555 12.8198 47.1972 12.701 47.0324 12.5937C46.8411 12.4683 46.6433 12.3528 46.4471 12.2372C46.2805 12.1382 46.1173 12.0359 45.9475 11.9451C45.7447 11.8345 45.5369 11.7372 45.3308 11.6365C45.161 11.554 44.9929 11.4665 44.8197 11.3906C44.607 11.2965 44.3878 11.2156 44.1701 11.1331C43.9987 11.0671 43.8272 10.9945 43.6541 10.9351C43.4282 10.8575 43.1974 10.7948 42.9665 10.7271C42.7951 10.6776 42.6269 10.6215 42.4538 10.5769C42.2114 10.5159 41.9641 10.4696 41.7168 10.4201C41.5519 10.3871 41.3903 10.3459 41.2238 10.3195C40.9468 10.2732 40.6649 10.2452 40.3846 10.2138C40.2461 10.199 40.1076 10.1742 39.9674 10.1627C39.5454 10.128 39.1183 10.1099 38.6897 10.1099C38.3236 10.1099 37.9527 10.128 37.5834 10.1544C37.524 10.1594 37.4663 10.161 37.4069 10.166C37.3641 10.1693 37.3212 10.1775 37.2783 10.1808C38.2148 13.0971 38.3451 16.2577 37.651 19.2581L37.6526 19.2614Z" fill="url(#paint0_radial_2052_354)"/>
<mask id="mask0_2052_354" style="mask-type:luminance" maskUnits="userSpaceOnUse" x="0" y="0" width="54" height="51">
<path d="M37.5273 29.8868L37.4729 20.9894C40.1026 21.8146 42.4769 23.3495 44.307 25.396C42.5016 27.4656 40.1472 29.0286 37.5273 29.8868ZM9.69138 25.6073C11.5198 27.6538 13.8941 29.1887 16.5255 30.0139L16.4711 21.1165C13.8512 21.9731 11.4951 23.5377 9.69138 25.6056V25.6073ZM35.7433 40.4544C36.6007 37.8451 36.7408 35.0196 36.139 32.3261L28.469 36.8219C30.5217 38.6654 33.0509 39.9247 35.7433 40.4544ZM35.562 10.4449C32.8762 11.0077 30.3618 12.2983 28.3322 14.1649L36.0566 18.5666C36.6254 15.8665 36.4507 13.0426 35.562 10.4432V10.4449ZM18.4347 40.5584C21.1205 39.9956 23.6349 38.705 25.6645 36.8384L17.9401 32.4367C17.3713 35.1368 17.546 37.9607 18.4347 40.5584ZM18.2534 10.5489C17.3977 13.1582 17.2559 15.9837 17.8577 18.6772L25.5277 14.1814C23.475 12.3379 20.9458 11.0786 18.2534 10.5489ZM17.335 8.22672C17.3861 8.11615 17.4356 8.00557 17.4883 7.89664C17.6664 7.5286 17.8527 7.16716 18.0539 6.81892V6.81727C18.2764 6.43272 18.5139 6.06138 18.7628 5.69828C18.8403 5.58605 18.9228 5.47713 19.0019 5.36655C19.1816 5.11734 19.3646 4.87307 19.5559 4.63541C19.6515 4.51658 19.7488 4.3994 19.8461 4.28387C20.0406 4.05447 20.2418 3.83166 20.4478 3.6138C20.5435 3.51313 20.6358 3.4108 20.7331 3.31178C21.015 3.02791 21.3052 2.75394 21.6053 2.49152C21.63 2.47007 21.6531 2.44696 21.6762 2.4255C22.0026 2.14328 22.3423 1.87756 22.6918 1.62175C22.7973 1.54418 22.9078 1.47156 23.015 1.39729C23.2656 1.22235 23.5195 1.05236 23.78 0.890614C23.9102 0.809744 24.0405 0.732174 24.1724 0.654604C24.2796 0.591889 24.3834 0.524222 24.4906 0.463157C23.3612 0.204041 22.2153 0.0753085 21.0744 0.0753085C18.4248 0.0753085 15.7951 0.766834 13.434 2.13173C9.9931 4.12048 7.51008 7.30579 6.40871 11.0638C6.45652 11.0341 6.50598 11.011 6.5538 10.9829C6.8786 10.7882 7.20671 10.6017 7.5447 10.43C7.65352 10.3739 7.76563 10.3244 7.8761 10.2716C8.12341 10.1528 8.37237 10.0389 8.62463 9.93161C8.76972 9.86889 8.91481 9.80617 9.0632 9.74841C9.37811 9.62463 9.69632 9.5091 10.0195 9.40512C10.1893 9.34901 10.3591 9.30115 10.5306 9.24998C10.7482 9.18562 10.9675 9.12785 11.1884 9.07174C11.4061 9.01727 11.6237 8.96611 11.8447 8.9199C12.12 8.86213 12.3953 8.81097 12.6723 8.76806C12.8438 8.74165 13.0153 8.7169 13.1884 8.69544C13.4984 8.65583 13.8083 8.62448 14.1216 8.60137C14.2749 8.59147 14.4266 8.58321 14.5799 8.57661C14.885 8.56341 15.1916 8.55846 15.4999 8.56011C15.6236 8.56011 15.7473 8.56011 15.8709 8.56506C16.265 8.57826 16.659 8.60302 17.0531 8.64263C17.0827 8.64593 17.1108 8.64593 17.1404 8.64923C17.2015 8.50729 17.2707 8.37031 17.335 8.23003V8.22672ZM36.6633 42.7716C36.6122 42.8822 36.5628 42.9944 36.51 43.105C36.3319 43.4731 36.1456 43.8345 35.9428 44.186C35.7203 44.5706 35.4812 44.9419 35.2339 45.305C35.1564 45.4189 35.0739 45.5278 34.9948 45.6384C34.8167 45.886 34.6337 46.1302 34.4425 46.3679C34.3468 46.4867 34.2496 46.6055 34.1506 46.7227C33.9561 46.9521 33.7566 47.1733 33.5505 47.3911C33.4549 47.4918 33.3609 47.5958 33.2636 47.6948C32.9833 47.977 32.6948 48.2494 32.3964 48.5101C32.37 48.5332 32.3453 48.558 32.3189 48.5811C31.9924 48.8633 31.6528 49.129 31.3049 49.3848C31.1994 49.4624 31.0906 49.5334 30.9834 49.6093C30.7328 49.7843 30.4789 49.9543 30.2167 50.116C30.0881 50.1969 29.9562 50.2744 29.8243 50.352C29.7171 50.4147 29.6133 50.4824 29.5045 50.5434C33.2504 51.4033 37.1827 50.8273 40.561 48.8749C44.002 46.8861 46.485 43.7008 47.5863 39.9428C47.4891 40.0022 47.3868 40.0517 47.2896 40.1079C47.095 40.2217 46.8988 40.3307 46.701 40.4363C46.4833 40.5535 46.2624 40.664 46.0398 40.7713C45.8321 40.8703 45.6227 40.9661 45.4116 41.0568C45.1907 41.1509 44.9698 41.24 44.7455 41.3259C44.523 41.41 44.3004 41.4926 44.0745 41.5668C43.8569 41.6394 43.6359 41.7055 43.415 41.7698C43.1776 41.8391 42.9402 41.9052 42.6994 41.9629C42.4851 42.0157 42.2691 42.0603 42.0515 42.1032C41.8009 42.1544 41.5519 42.2022 41.298 42.2418C41.0837 42.2748 40.8693 42.3013 40.655 42.326C40.3994 42.3557 40.1439 42.3854 39.885 42.4036C39.6624 42.4201 39.4398 42.425 39.2173 42.4316C39.0425 42.4366 38.8677 42.4547 38.693 42.4547C38.6105 42.4547 38.5264 42.4465 38.444 42.4448C38.2775 42.4432 38.111 42.4333 37.9444 42.4267C37.6674 42.4151 37.3921 42.397 37.1151 42.3722C37.0294 42.364 36.9436 42.364 36.8579 42.3557C36.7985 42.496 36.7293 42.633 36.665 42.7733L36.6633 42.7716ZM7.22319 25.2409C7.15229 25.1419 7.0814 25.0428 7.0138 24.9422C6.78462 24.6038 6.56369 24.2622 6.36254 23.9123C6.13996 23.5278 5.93881 23.135 5.74921 22.7388C5.68985 22.6151 5.63709 22.488 5.57938 22.3626C5.45408 22.0836 5.33537 21.8047 5.2249 21.5208C5.16884 21.3773 5.11608 21.2337 5.06497 21.0884C4.9644 20.8062 4.87207 20.5223 4.78798 20.2352C4.74841 20.1015 4.70554 19.9678 4.66927 19.8341C4.5654 19.4512 4.47472 19.065 4.39888 18.6772C4.39228 18.6425 4.38239 18.6079 4.37579 18.5732C4.295 18.149 4.23565 17.7232 4.18783 17.2941C4.173 17.1637 4.1664 17.0301 4.15486 16.8997C4.12848 16.596 4.1087 16.2923 4.0988 15.9853C4.09386 15.8319 4.09221 15.6784 4.09056 15.5249C4.09056 15.4011 4.08231 15.2773 4.08396 15.1535C1.46739 17.9708 0 21.6677 0 25.5726C0 29.4775 1.5152 33.2949 4.21422 36.1287C4.21092 35.995 4.21751 35.863 4.21751 35.7293C4.21751 35.5725 4.21751 35.4157 4.22081 35.2589C4.22905 34.9437 4.24719 34.6301 4.27192 34.3165C4.28181 34.1862 4.28841 34.0541 4.3016 33.9237C4.34776 33.4847 4.40712 33.0457 4.48626 32.6116C4.49615 32.5572 4.51099 32.5044 4.52088 32.4499C4.59343 32.0703 4.68081 31.6924 4.77974 31.3177C4.81766 31.1758 4.86053 31.0372 4.90175 30.8969C4.98583 30.6064 5.07816 30.3176 5.17874 30.0304C5.2315 29.8819 5.28426 29.7333 5.34031 29.5864C5.45078 29.2976 5.56949 29.0137 5.69644 28.7315C5.75415 28.6028 5.80691 28.4741 5.86792 28.347C6.05917 27.9459 6.26197 27.5482 6.4862 27.1603C6.67251 26.8385 6.87366 26.5216 7.08305 26.2097C7.14405 26.1189 7.2067 26.0314 7.26771 25.9423C7.3419 25.835 7.4128 25.7261 7.49029 25.6205C7.39796 25.4967 7.31387 25.368 7.22484 25.2425L7.22319 25.2409ZM16.2716 19.3869C15.5395 16.393 15.6318 13.2324 16.5337 10.3046C16.3655 10.2914 16.199 10.2782 16.0308 10.2699C16.0028 10.2699 15.9731 10.2666 15.9451 10.265C12.7696 10.1379 9.62048 11.0077 6.97588 12.7208C6.91817 12.7588 6.86211 12.7984 6.80441 12.8363C6.65602 12.9354 6.50928 13.036 6.36419 13.14C6.2867 13.1961 6.20921 13.2555 6.13172 13.3133C6.05917 13.3678 5.98992 13.4222 5.91903 13.4784C5.89595 13.6516 5.87946 13.8249 5.86297 13.9982C5.84483 14.1946 5.8234 14.391 5.81186 14.5858C5.79867 14.8152 5.79867 15.043 5.79537 15.2724C5.79372 15.4655 5.78713 15.6602 5.79207 15.8533C5.79867 16.0827 5.8168 16.3105 5.83329 16.5382C5.84648 16.728 5.85637 16.9195 5.87616 17.1076C5.90089 17.3387 5.94046 17.5664 5.97673 17.7942C6.00476 17.9774 6.02784 18.1622 6.06412 18.3454C6.11028 18.5798 6.16964 18.8092 6.22734 19.0403C6.27021 19.2152 6.30648 19.3918 6.3543 19.5634C6.4219 19.8028 6.50598 20.0388 6.58677 20.2764C6.64118 20.4365 6.68735 20.5999 6.74835 20.76C6.84563 21.0191 6.96104 21.2733 7.07151 21.5291C7.12921 21.6611 7.17867 21.7965 7.24133 21.9268C7.42269 22.3114 7.62054 22.6893 7.83488 23.0623C8.05416 23.4419 8.29488 23.8133 8.55044 24.178C8.56693 24.2028 8.58671 24.2259 8.6032 24.249C10.6592 21.978 13.3269 20.2847 16.2716 19.3885V19.3869ZM46.7752 25.7591C46.8461 25.8581 46.917 25.9555 46.9845 26.0562C47.2137 26.3945 47.4347 26.7378 47.6358 27.0877C47.8584 27.4722 48.0595 27.865 48.2491 28.2612C48.3085 28.3849 48.3613 28.512 48.419 28.6374C48.5443 28.9164 48.663 29.1953 48.7734 29.4792C48.8295 29.6227 48.8823 29.7663 48.9334 29.9116C49.034 30.1938 49.1263 30.4793 49.212 30.7648C49.2516 30.8985 49.2945 31.0306 49.3307 31.1659C49.4346 31.5504 49.5253 31.9366 49.6028 32.3261C49.6094 32.3608 49.6193 32.3938 49.6259 32.4285C49.7066 32.8526 49.766 33.2801 49.8138 33.7092C49.8287 33.8396 49.8352 33.9699 49.8468 34.102C49.8732 34.4073 49.893 34.7126 49.9028 35.018C49.9078 35.1698 49.9094 35.3233 49.9094 35.4768C49.9094 35.6006 49.9177 35.7243 49.916 35.8498C52.5326 33.0325 54 29.3372 54 25.4307C54 21.4532 52.4848 17.7084 49.7858 14.8746C49.7891 15.0083 49.7825 15.142 49.7825 15.2757C49.7825 15.4324 49.7825 15.5876 49.7792 15.7427C49.7709 16.0596 49.7528 16.3748 49.7264 16.6901C49.7165 16.8188 49.7099 16.9492 49.6968 17.0779C49.6506 17.5186 49.5912 17.9576 49.5121 18.3916C49.5022 18.4428 49.489 18.494 49.4791 18.5451C49.4049 18.928 49.3192 19.3093 49.2186 19.6872C49.1823 19.8259 49.1395 19.9628 49.0983 20.1015C49.0125 20.3936 48.9218 20.6841 48.8196 20.9729C48.7685 21.1214 48.7141 21.2683 48.658 21.4152C48.5476 21.704 48.4272 21.9896 48.3019 22.2718C48.2458 22.3989 48.1914 22.5276 48.1321 22.6547C47.9408 23.0574 47.738 23.4535 47.5138 23.8413C47.3275 24.1648 47.1263 24.48 46.917 24.7936C46.8576 24.8827 46.7949 24.9702 46.7339 25.0593C46.6597 25.1666 46.5888 25.2772 46.5114 25.3828C46.6037 25.5066 46.6878 25.6337 46.7768 25.7608L46.7752 25.7591ZM37.7268 31.6131C38.4588 34.607 38.3665 37.7676 37.4646 40.6971C37.6246 40.7103 37.7861 40.7218 37.9461 40.7301C37.984 40.7317 38.0219 40.735 38.0598 40.7367C41.232 40.8621 44.3779 39.994 47.0208 38.2808C47.0802 38.2429 47.1379 38.2016 47.1972 38.162C47.344 38.0646 47.4891 37.964 47.6325 37.8616C47.7116 37.8039 47.7891 37.7461 47.8683 37.6867C47.9392 37.6339 48.0101 37.5778 48.0793 37.5233C48.1008 37.3517 48.1189 37.18 48.1337 37.01C48.1519 36.812 48.1749 36.6139 48.1848 36.4159C48.198 36.1881 48.198 35.962 48.2013 35.7359C48.203 35.5411 48.2096 35.3447 48.2046 35.15C48.198 34.9222 48.1799 34.6945 48.1634 34.4684C48.1502 34.2769 48.1403 34.0871 48.1205 33.8957C48.0958 33.6646 48.0562 33.4369 48.02 33.2091C47.9919 33.0259 47.9689 32.8411 47.9326 32.6579C47.8864 32.4235 47.8271 32.1941 47.7694 31.963C47.7265 31.7881 47.6902 31.6132 47.6424 31.4399C47.5748 31.1989 47.4907 30.9629 47.4099 30.7252C47.3555 30.5651 47.3094 30.4034 47.25 30.245C47.1511 29.9825 47.0357 29.7251 46.9235 29.4676C46.8658 29.3389 46.818 29.2068 46.757 29.0781C46.579 28.7018 46.3844 28.3305 46.175 27.9641C46.1701 27.9575 46.1684 27.9492 46.1635 27.9426C45.9442 27.5614 45.7018 27.19 45.4479 26.8253C45.4314 26.8005 45.4116 26.7791 45.3952 26.7543C43.3392 29.0253 40.6715 30.7186 37.7268 31.6148V31.6131ZM17.0151 42.4993C16.7711 42.5241 16.5288 42.5422 16.2847 42.5571C16.0539 42.5703 15.8247 42.5802 15.5956 42.5851C15.4999 42.5851 15.4027 42.5967 15.307 42.5967C15.1933 42.5967 15.0828 42.5851 14.9707 42.5835C14.6838 42.5785 14.4002 42.567 14.115 42.5472C13.932 42.534 13.7506 42.5191 13.5692 42.4993C13.2824 42.4696 12.9971 42.4349 12.7119 42.392C12.5239 42.364 12.336 42.331 12.1497 42.2963C11.8826 42.2468 11.6188 42.1907 11.355 42.128C11.1538 42.0801 10.9527 42.0289 10.7532 41.9728C10.5108 41.9052 10.2701 41.8325 10.031 41.755C9.81998 41.6857 9.61059 41.613 9.40284 41.5371C9.17696 41.4529 8.95273 41.3638 8.7318 41.2697C8.52241 41.1806 8.31302 41.0898 8.10692 40.9925C7.88929 40.8901 7.6766 40.7829 7.46226 40.6706C7.26111 40.565 7.05997 40.4561 6.86212 40.3422C6.77143 40.2894 6.67745 40.2465 6.58842 40.192C7.71782 43.8692 10.1811 46.9901 13.561 48.9425C17.002 50.9313 21.0002 51.4908 24.8006 50.5666C24.6835 50.5038 24.573 50.4296 24.456 50.3636C24.3208 50.286 24.1856 50.2068 24.0504 50.1259C23.7816 49.9608 23.5195 49.7892 23.2623 49.6093C23.1535 49.535 23.043 49.4641 22.9358 49.3865C22.578 49.1274 22.2302 48.8567 21.8938 48.5712C21.8493 48.5332 21.8097 48.492 21.7652 48.454C21.475 48.2015 21.1931 47.9407 20.9194 47.6684C20.8155 47.5644 20.7149 47.4555 20.6144 47.3499C20.4066 47.132 20.2038 46.9092 20.0076 46.6815C19.9038 46.561 19.8015 46.4389 19.7026 46.3167C19.5097 46.0774 19.3234 45.8332 19.142 45.5839C19.0596 45.4701 18.9739 45.3578 18.8947 45.2423C18.6425 44.8759 18.4001 44.5013 18.1775 44.1134C17.9912 43.7899 17.8197 43.4582 17.6532 43.1215C17.6054 43.0241 17.5592 42.9251 17.5131 42.8261C17.457 42.7089 17.3977 42.5917 17.3449 42.4729C17.2344 42.4861 17.124 42.4878 17.0135 42.4993H17.0151ZM19.0843 42.1725C19.0909 42.1874 19.0975 42.2022 19.1041 42.2171C19.2756 42.5736 19.4569 42.9251 19.6532 43.2635C19.8691 43.6381 20.1016 44.0012 20.3473 44.3544C20.4297 44.4732 20.5237 44.5838 20.6094 44.701C20.7792 44.9304 20.9458 45.1598 21.1271 45.3793C21.2376 45.513 21.3596 45.6368 21.4734 45.7671C21.6432 45.9569 21.8097 46.1517 21.9878 46.3332C22.1164 46.4636 22.2549 46.5857 22.3884 46.7128C22.5649 46.8812 22.7396 47.0512 22.9243 47.2096C23.0677 47.3334 23.2211 47.4473 23.3694 47.5661C23.5541 47.7146 23.7388 47.8648 23.93 48.0051C24.0866 48.119 24.2515 48.223 24.4131 48.3319C24.6077 48.4623 24.7989 48.5943 24.9984 48.7148C25.1666 48.8171 25.3414 48.9095 25.5145 49.0053C25.7173 49.1175 25.9184 49.2314 26.1245 49.3337C26.3026 49.4228 26.4872 49.5004 26.6686 49.5812C26.8269 49.6522 26.9852 49.7215 27.1467 49.7876C27.3034 49.7215 27.4584 49.6522 27.6133 49.5812C27.7931 49.4987 27.9761 49.4195 28.1525 49.3304C28.3569 49.2281 28.5531 49.1142 28.751 49.0036C28.9208 48.9079 29.0923 48.8155 29.2571 48.7148C29.4517 48.5943 29.6397 48.4639 29.8293 48.3368C29.9875 48.2296 30.1475 48.1272 30.3008 48.015C30.4888 47.8764 30.6668 47.7278 30.8465 47.5826C30.99 47.4671 31.1384 47.3548 31.2769 47.2327C31.4566 47.0759 31.628 46.9076 31.7995 46.7409C31.9281 46.6171 32.0617 46.4983 32.187 46.3712C32.3617 46.1913 32.525 45.9998 32.6899 45.8117C32.802 45.6846 32.9174 45.5641 33.0245 45.4338C33.201 45.2192 33.3642 44.9914 33.5291 44.767C33.6148 44.6515 33.7055 44.5409 33.7879 44.422C34.0286 44.0722 34.2578 43.7124 34.4722 43.341C34.6914 42.9598 34.8926 42.5653 35.0805 42.1626C35.0937 42.1362 35.1036 42.1082 35.1152 42.0817C32.1227 41.4348 29.3247 39.9692 27.0758 37.8649C24.8517 39.9956 22.0702 41.4975 19.0843 42.1791V42.1725ZM16.3474 31.7452C13.3912 30.8837 10.7021 29.2217 8.61969 26.9755C8.60979 26.9887 8.5999 27.0019 8.59166 27.0151C8.36743 27.3419 8.15639 27.6753 7.96018 28.0136C7.7442 28.3882 7.54635 28.7711 7.36334 29.1606C7.30233 29.291 7.25287 29.4263 7.19681 29.5584C7.08305 29.8208 6.96763 30.0816 6.86871 30.3489C6.80935 30.5107 6.76154 30.6774 6.70713 30.8424C6.62634 31.085 6.54226 31.326 6.47466 31.5719C6.42519 31.7501 6.38892 31.9317 6.34605 32.1099C6.29 32.3459 6.22899 32.5819 6.18448 32.8196C6.1482 33.0078 6.12677 33.1976 6.09874 33.3873C6.06412 33.6217 6.02455 33.8544 5.99981 34.0888C5.98003 34.2819 5.97179 34.4766 5.9586 34.6714C5.94376 34.9041 5.92562 35.1368 5.92068 35.3695C5.91738 35.5659 5.92397 35.764 5.92892 35.9604C5.93387 36.1914 5.93552 36.4241 5.95035 36.6552C5.96354 36.8532 5.98663 37.0513 6.00806 37.251C6.0262 37.4243 6.04433 37.5959 6.06906 37.7692C6.30483 37.9491 6.54226 38.1273 6.78627 38.2924C6.83573 38.327 6.88685 38.3584 6.93796 38.3931C7.25946 38.6043 7.58427 38.8057 7.91732 38.9905C7.94864 39.007 7.97997 39.0235 8.0113 39.04C8.7318 39.4345 9.47704 39.7679 10.2454 40.0385C10.2585 40.0435 10.2701 40.0484 10.2833 40.0517C10.6724 40.1871 11.0664 40.3059 11.4671 40.4099C11.4803 40.4132 11.4935 40.4165 11.5067 40.4198C11.9106 40.5238 12.3211 40.6096 12.735 40.6805C12.7383 40.6805 12.7399 40.6805 12.7432 40.6805C13.5841 40.8225 14.4431 40.8935 15.3136 40.8935C15.6797 40.8935 16.049 40.8753 16.4183 40.8489C16.4776 40.8439 16.537 40.8406 16.5964 40.8357C16.6392 40.8324 16.6821 40.8241 16.725 40.8208C15.7885 37.9045 15.6582 34.744 16.354 31.7435L16.3474 31.7452ZM37.1118 8.48914C37.2338 8.47759 37.3542 8.46438 37.4745 8.45613C37.8818 8.42642 38.289 8.40662 38.693 8.40662C39.1365 8.40662 39.5767 8.42807 40.0153 8.46108C40.1521 8.47099 40.2873 8.48914 40.4242 8.50234C40.7275 8.53205 41.0293 8.57001 41.3293 8.61622C41.481 8.63933 41.6327 8.66574 41.7844 8.69379C42.0779 8.74661 42.3697 8.81097 42.6599 8.87864C42.7967 8.91165 42.9319 8.94135 43.0671 8.97601C43.4496 9.07834 43.8288 9.19057 44.2031 9.3193C44.2377 9.33085 44.2723 9.33911 44.3053 9.35066C44.7109 9.49259 45.1116 9.65434 45.5056 9.82763C45.626 9.88044 45.7447 9.93986 45.8634 9.99597C46.1404 10.1247 46.4124 10.26 46.6828 10.4053C46.818 10.4779 46.9516 10.5522 47.0835 10.6281C47.1906 10.6891 47.3011 10.7453 47.4083 10.808C46.2789 7.13085 43.8156 4.0099 40.4373 2.05746C36.9964 0.0687059 32.9982 -0.490785 29.1978 0.433449C29.3148 0.497815 29.427 0.570433 29.5424 0.63645C29.6776 0.714019 29.8128 0.79324 29.9463 0.87411C30.2151 1.03915 30.4772 1.21245 30.7361 1.39069C30.8449 1.46496 30.9554 1.53593 31.0609 1.6135C31.4187 1.87261 31.7665 2.14328 32.1029 2.4288C32.1458 2.46511 32.1853 2.50637 32.2298 2.54268C32.52 2.7952 32.8036 3.05761 33.0773 3.32993C33.1812 3.43391 33.2818 3.54119 33.3823 3.64846C33.5901 3.86632 33.7945 4.08913 33.9907 4.31853C34.0946 4.43901 34.1952 4.55949 34.2957 4.68328C34.4886 4.92259 34.6749 5.1685 34.8563 5.41771C34.9388 5.53159 35.0245 5.64217 35.1036 5.75935C35.3559 6.12574 35.5983 6.50039 35.8208 6.88823C36.0071 7.21007 36.1786 7.54345 36.3451 7.88014C36.393 7.97751 36.4391 8.07654 36.4853 8.17556C36.5413 8.29274 36.6007 8.40992 36.6535 8.52875C36.8068 8.5106 36.9601 8.50234 37.1135 8.48749L37.1118 8.48914ZM26.385 1.42865C26.2053 1.51117 26.0256 1.59039 25.8508 1.67786C25.6464 1.78184 25.4485 1.89572 25.249 2.00795C25.0808 2.10202 24.9094 2.19444 24.7462 2.29512C24.5499 2.4156 24.362 2.54598 24.1724 2.67472C24.0158 2.78034 23.8558 2.88267 23.7041 2.9949C23.5162 3.13353 23.3365 3.28207 23.1551 3.42896C23.0117 3.54449 22.8649 3.65672 22.7264 3.7772C22.5467 3.93399 22.3752 4.10233 22.2038 4.26902C22.0752 4.3928 21.9416 4.51163 21.8163 4.63871C21.6415 4.81861 21.4783 5.01171 21.3118 5.20151C21.2013 5.32694 21.0859 5.44742 20.9787 5.5778C20.8007 5.79566 20.6342 6.02507 20.4676 6.25447C20.3852 6.3667 20.2962 6.47398 20.217 6.58951C19.9747 6.9394 19.7471 7.29919 19.5311 7.67218C19.5311 7.67218 19.5311 7.67548 19.5295 7.67548C19.3102 8.05508 19.1107 8.44788 18.9228 8.85058C18.9096 8.87699 18.8997 8.90505 18.8881 8.93145C21.8806 9.57842 24.6786 11.044 26.9275 13.1483C29.1516 11.0176 31.9331 9.5157 34.919 8.83408C34.9124 8.81922 34.9058 8.80437 34.8992 8.78952C34.7277 8.43303 34.5463 8.08149 34.3501 7.74315C34.3485 7.73985 34.3452 7.73655 34.3436 7.73325C34.1292 7.3619 33.9 7.00211 33.656 6.65222C33.5736 6.53339 33.4796 6.42282 33.3939 6.30564C33.224 6.07788 33.0575 5.84682 32.8762 5.62896C32.764 5.49528 32.6437 5.3715 32.5283 5.24112C32.3601 5.05132 32.1936 4.85822 32.0155 4.67667C31.8853 4.54464 31.7468 4.42251 31.6132 4.29543C31.4368 4.12874 31.2637 3.95874 31.0807 3.8003C30.9356 3.67487 30.7839 3.56099 30.6339 3.44216C30.4492 3.29362 30.2662 3.14344 30.0749 3.0048C29.9183 2.89092 29.7534 2.78694 29.5918 2.67802C29.3973 2.54763 29.206 2.4156 29.0065 2.29512C28.8384 2.19279 28.6636 2.10202 28.4921 2.0063C28.2893 1.89407 28.0865 1.78019 27.8788 1.67621C27.7007 1.58874 27.5177 1.50952 27.3363 1.42865C27.1781 1.35768 27.0181 1.28672 26.8566 1.22235C26.6983 1.28837 26.5433 1.35933 26.3883 1.4303L26.385 1.42865ZM37.6526 19.2614C40.6088 20.1229 43.2979 21.7849 45.3803 24.0311C45.3886 24.0179 45.4001 24.0047 45.4083 23.9915C45.6309 23.6647 45.8436 23.3314 46.0398 22.993C46.2558 22.6184 46.4537 22.2355 46.6367 21.846C46.6977 21.7172 46.7455 21.5819 46.8032 21.4515C46.9169 21.1875 47.034 20.925 47.1329 20.6577C47.1923 20.4976 47.2385 20.3309 47.2929 20.1691C47.3737 19.9249 47.4577 19.6823 47.527 19.4347C47.5765 19.2565 47.6127 19.0766 47.6556 18.8967C47.7117 18.6607 47.7727 18.4247 47.8172 18.1853C47.8534 17.9988 47.8749 17.8091 47.9029 17.6209C47.9392 17.3865 47.9771 17.1522 48.0018 16.9162C48.0216 16.7231 48.0299 16.53 48.0414 16.3352C48.0562 16.1009 48.076 15.8682 48.0793 15.6338C48.0826 15.4374 48.0744 15.241 48.0711 15.0446C48.0661 14.8119 48.0645 14.5808 48.0496 14.3481C48.0365 14.1501 48.0134 13.952 47.9919 13.754C47.9738 13.5807 47.9557 13.4074 47.9309 13.2357C47.7941 13.1318 47.6556 13.0327 47.5171 12.9337C47.3555 12.8198 47.1972 12.701 47.0324 12.5937C46.8411 12.4683 46.6433 12.3528 46.4471 12.2372C46.2805 12.1382 46.1173 12.0359 45.9475 11.9451C45.7447 11.8345 45.5369 11.7372 45.3308 11.6365C45.161 11.554 44.9929 11.4665 44.8197 11.3906C44.607 11.2965 44.3878 11.2156 44.1701 11.1331C43.9987 11.0671 43.8272 10.9945 43.6541 10.9351C43.4282 10.8575 43.1974 10.7948 42.9665 10.7271C42.7951 10.6776 42.6269 10.6215 42.4538 10.5769C42.2114 10.5159 41.9641 10.4696 41.7168 10.4201C41.5519 10.3871 41.3903 10.3459 41.2238 10.3195C40.9468 10.2732 40.6649 10.2452 40.3846 10.2138C40.2461 10.199 40.1076 10.1742 39.9674 10.1627C39.5454 10.128 39.1183 10.1099 38.6897 10.1099C38.3236 10.1099 37.9527 10.128 37.5834 10.1544C37.524 10.1594 37.4663 10.161 37.4069 10.166C37.3641 10.1693 37.3212 10.1775 37.2783 10.1808C38.2148 13.0971 38.3451 16.2577 37.651 19.2581L37.6526 19.2614Z" fill="white"/>
</mask>
<g mask="url(#mask0_2052_354)">
<path d="M27 52.8491C42.0884 52.8491 54.3199 40.6052 54.3199 25.5017C54.3199 10.3981 42.0884 -1.84576 27 -1.84576C11.9117 -1.84576 -0.319824 10.3981 -0.319824 25.5017C-0.319824 40.6052 11.9117 52.8491 27 52.8491Z" fill="url(#paint1_radial_2052_354)"/>
</g>
<defs>
<radialGradient id="paint0_radial_2052_354" cx="0" cy="0" r="1" gradientUnits="userSpaceOnUse" gradientTransform="translate(27.2732 25.4914) rotate(-28.6025) scale(26.6498 25.8679)">
<stop offset="0.42" stop-color="#5B5FED"/>
<stop offset="0.46" stop-color="#625EEB"/>
<stop offset="0.52" stop-color="#755DE7"/>
<stop offset="0.6" stop-color="#955BE0"/>
<stop offset="0.68" stop-color="#C158D6"/>
<stop offset="0.77" stop-color="#FF54C9"/>
<stop offset="0.83" stop-color="#FF55C6"/>
<stop offset="0.85" stop-color="#FF5BBE"/>
<stop offset="0.88" stop-color="#FF64B0"/>
<stop offset="0.89" stop-color="#FF729D"/>
<stop offset="0.91" stop-color="#FF8384"/>
<stop offset="0.93" stop-color="#FF9965"/>
<stop offset="0.94" stop-color="#FFB340"/>
<stop offset="0.96" stop-color="#FFE000"/>
<stop offset="1" stop-color="#FFF399"/>
</radialGradient>
<radialGradient id="paint1_radial_2052_354" cx="0" cy="0" r="1" gradientUnits="userSpaceOnUse" gradientTransform="translate(27.2765 25.4925) rotate(-30.025) scale(27.3441 27.3579)">
<stop offset="0.42" stop-color="#5B5FED"/>
<stop offset="0.46" stop-color="#625EEB"/>
<stop offset="0.52" stop-color="#755DE7"/>
<stop offset="0.6" stop-color="#955BE0"/>
<stop offset="0.68" stop-color="#C158D6"/>
<stop offset="0.77" stop-color="#FF54C9"/>
<stop offset="0.83" stop-color="#FF55C6"/>
<stop offset="0.85" stop-color="#FF5BBE"/>
<stop offset="0.88" stop-color="#FF64B0"/>
<stop offset="0.89" stop-color="#FF729D"/>
<stop offset="0.91" stop-color="#FF8384"/>
<stop offset="0.93" stop-color="#FF9965"/>
<stop offset="0.94" stop-color="#FFB340"/>
<stop offset="0.96" stop-color="#FFE000"/>
<stop offset="1" stop-color="#FFF399"/>
</radialGradient>
</defs>
</svg>
